<svg width="9" height="16" viewBox="0 0 9 16" fill="none" xmlns="http://www.w3.org/2000/svg">
<path d="M1.28162 0.213258C1.14083 0.0767113 0.949869 -1.43875e-09 0.750756 0C0.551643 1.43875e-09 0.360685 0.0767113 0.219891 0.213258C0.0790968 0.349805 1.48351e-09 0.535002 0 0.728108C-1.48351e-09 0.921214 0.0790968 1.10641 0.219891 1.24296L7.18862 8L0.219891 14.757C0.0790968 14.8936 0 15.0788 0 15.2719C0 15.465 0.0790968 15.6502 0.219891 15.7867C0.360685 15.9233 0.551643 16 0.750756 16C0.949869 16 1.14083 15.9233 1.28162 15.7867L8.77972 8.51485C8.84954 8.4473 8.90494 8.36705 8.94274 8.27871C8.98054 8.19036 9 8.09565 9 8C9 7.90435 8.98054 7.80964 8.94274 7.72129C8.90494 7.63295 8.84954 7.5527 8.77972 7.48515L1.28162 0.213258Z" fill="#262522"/>
</svg>
