<svg width="9" height="16" viewBox="0 0 9 16" fill="none" xmlns="http://www.w3.org/2000/svg">
<path d="M7.71838 0.213258C7.85917 0.0767113 8.05013 -1.43875e-09 8.24924 0C8.44836 1.43875e-09 8.63931 0.0767113 8.78011 0.213258C8.9209 0.349805 9 0.535002 9 0.728108C9 0.921214 8.9209 1.10641 8.78011 1.24296L1.81138 8L8.78011 14.757C8.9209 14.8936 9 15.0788 9 15.2719C9 15.465 8.9209 15.6502 8.78011 15.7867C8.63931 15.9233 8.44836 16 8.24924 16C8.05013 16 7.85917 15.9233 7.71838 15.7867L0.220284 8.51485C0.150457 8.4473 0.0950575 8.36705 0.0572577 8.27871C0.0194569 8.19036 0 8.09565 0 8C0 7.90435 0.0194569 7.80964 0.0572577 7.72129C0.0950575 7.63295 0.150457 7.5527 0.220284 7.48515L7.71838 0.213258Z" fill="#262522" fill-opacity="0.24"/>
</svg>
